Full Credits to (Pitic):


 ######## ######## ######## ##          ######## ########  ######## ######
 ##       ##       ##       ##          ##       ##     ## ##       ##       
 ##       ##       ##       ##          ##       ##     ## ##       ##       
 ######   ######   ######   ##          ######   ########  ######   ######   
 ##       ##       ##       ##          ##       ##   ##   ##       ##       
 ##       ##       ##       ##          ##       ##    ##  ##       ##       
 ##       ######## ######## ########    ##       ##     ## ######## ######	

Genre:Animation | Action | Adventure 
 Language:English
 IMDb:http://www.imdb.com/title/tt1302011/
 Source:Russian/EP1C Thanks!

 Format : MPEG-4
 Format profile : Base Media
 Codec ID : isom
 File size : 967 MiB
 Duration : 1h 20mn
 Overall bit rate : 1 670 Kbps

 Video
 ID : 1
 Format : AVC
 Format/Info : Advanced Video Codec
 Format profile : High@L4.1
 Format settings, CABAC : Yes
 Format settings, ReFrames : 3 frames
 Format settings, GOP : M=3, N=12
 Codec ID : avc1
 Codec ID/Info : Advanced Video Coding
 Duration : 1h 20mn
 Bit rate mode : Variable
 Bit rate : 1 436 Kbps
 Maximum bit rate : 6 671 Kbps
 Width : 672 pixels
 Height : 352 pixels
 Display aspect ratio : 1.909
 Frame rate mode : Constant
 Frame rate : 25.000 fps
 Color space : YUV
 Chroma subsampling : 4:2:0
 Bit depth : 8 bits
 Scan type : Progressive
 Bits/(Pixel*Frame) : 0.243
 Stream size : 835 MiB (86%)
 Writing library : x264

 Audio
 ID : 2
 Format : AAC
 Format/Info : Advanced Audio Codec
 Format version : Version 4
 Format profile : LC
 Format settings, SBR : No
 Codec ID : 40
 Duration : 1h 20mn
 Bit rate mode : Variable
 Bit rate : 224 Kbps
 Maximum bit rate : 241 Kbps
 Channel(s) : 2 channels
 Channel positions : Front: L R
 Sampling rate : 48.0 KHz
 Stream size : 130 MiB (13%)

 Plot:
 Po joins forces with a group of new kung-fu masters to take on an old enemy with a deadly new weapon


Greets:

 INK,CRYS,IMAGINE,LKRG,FXG,3Li,FLAWL3SS,TA,iLLUSiON,ViSiON,DTRG SAFCuk009,LU,TheFalcon007,MYSTiC,PrisM,Noir,WBZ,LAP,Rx,Kingdom,SAFCuk009+Fabreezy,HDLiTE,TWiZTED,ExtraTorrentRG.ELEKTRI4KA,MAGNAT,CM8
 And to all the other p2p grps past and present




----------------------------------                            
http://thepiratebay.org/user/hiest
----------------------------------




Screenshots:
 
http://www.pix2links.com/images/28529394325119081246.png
 
http://www.pix2links.com/images/70659541146665327635.png
 
http://www.pix2links.com/images/43176432990938318404.png
 
http://www.pix2links.com/images/27883376852443935812.png
 
http://www.pix2links.com/images/99478086136535279772.png


Full Credits to (Pitic):


 ######## ######## ######## ##          ######## ########  ######## ######
 ##       ##       ##       ##          ##       ##     ## ##       ##       
 ##       ##       ##       ##          ##       ##     ## ##       ##       
 ######   ######   ######   ##          ######   ########  ######   ######   
 ##       ##       ##       ##          ##       ##   ##   ##       ##       
 ##       ##       ##       ##          ##       ##    ##  ##       ##       
 ##       ######## ######## ########    ##       ##     ## ######## ######	

